Coordinates
version=1
nRows=13
nColumns=38
inDegrees=no

Units are S.I. units (second, meters, Newtons, ...)
If the header above contains a line with 'inDegrees', this indicates whether rotational values are in degrees (yes) or radians (no).

endheader
time	pelvis_tilt	pelvis_list	pelvis_rotation	pelvis_tx	pelvis_ty	pelvis_tz	hip_flexion_r	hip_adduction_r	hip_rotation_r	knee_angle_r	ankle_angle_r	subtalar_angle_r	mtp_angle_r	hip_flexion_l	hip_adduction_l	hip_rotation_l	knee_angle_l	ankle_angle_l	subtalar_angle_l	mtp_angle_l	lumbar_extension	lumbar_bending	lumbar_rotation	arm_flex_r	arm_add_r	arm_rot_r	elbow_flex_r	pro_sup_r	wrist_flex_r	wrist_dev_r	arm_flex_l	arm_add_l	arm_rot_l	elbow_flex_l	pro_sup_l	wrist_flex_l	wrist_dev_l
1.3	-1.97025	1.45355	-2.84266	0.619107	1.04933	0.949454	0.241037	-0.24997	-0.0476979	1.27174	-0.29675	0	0	0.128275	0.156203	-0.288419	0.191304	0.030986	0	0	-0.0031173	-0.188062	-0.114779	-0.299579	-0.062853	-0.261447	0.285191	0.915086	0	0	-0.367273	-0.309484	0.190153	0.67531	0.647296	0	0
1.31	-2.03242	1.45541	-2.77975	0.61802	1.05768	0.951329	0.259545	-0.243336	-0.0409176	1.29932	-0.274581	0	0	0.10319	0.156696	-0.280013	0.176033	0.0324902	0	0	-0.00993808	-0.183643	-0.118277	-0.295571	-0.0655086	-0.252746	0.277661	0.912199	0	0	-0.364614	-0.306787	0.188539	0.670141	0.649593	0	0
1.32	-2.09399	1.45865	-2.71676	0.616905	1.06586	0.953154	0.277875	-0.234575	-0.0361361	1.32173	-0.252149	0	0	0.0793086	0.155335	-0.270437	0.160704	0.0332946	0	0	-0.015814	-0.177194	-0.122242	-0.292128	-0.0684141	-0.243009	0.271019	0.908343	0	0	-0.361111	-0.304321	0.190624	0.663478	0.651981	0	0
1.33	-2.15702	1.4623	-2.65216	0.615814	1.0739	0.954897	0.295899	-0.22439	-0.0319429	1.33894	-0.233518	0	0	0.0560758	0.15315	-0.260354	0.144977	0.0335684	0	0	-0.0213145	-0.169864	-0.126234	-0.289473	-0.0709609	-0.234496	0.266768	0.902614	0	0	-0.35769	-0.302527	0.19458	0.65834	0.65372	0	0
1.34	-2.2081	1.46425	-2.59871	0.615958	1.08187	0.956558	0.311641	-0.203756	-0.035211	1.35414	-0.22748	0	0	0.0328867	0.149433	-0.254971	0.127994	0.0356643	0	0	-0.025719	-0.166527	-0.13101	-0.28795	-0.0712573	-0.227888	0.265171	0.895956	0	0	-0.355288	-0.302713	0.197435	0.655349	0.653418	0	0
1.35	-2.27022	1.467	-2.53328	0.614653	1.0899	0.958019	0.328446	-0.199328	-0.037963	1.36208	-0.216643	0	0	0.0101131	0.147832	-0.245124	0.111545	0.0349326	0	0	-0.0305631	-0.159307	-0.13631	-0.287738	-0.0728411	-0.224595	0.266932	0.890776	0	0	-0.352622	-0.301847	0.202603	0.653745	0.652775	0	0
1.36	-2.33789	1.47015	-2.46251	0.613385	1.09771	0.959359	0.344289	-0.188747	-0.0343761	1.36477	-0.208919	0	0	-0.0121307	0.144999	-0.236578	0.0949616	0.0339774	0	0	-0.0354421	-0.151172	-0.141449	-0.2876	-0.0740411	-0.222785	0.26888	0.892325	0	0	-0.349871	-0.300639	0.205447	0.65413	0.650613	0	0
1.37	-2.40572	1.47301	-2.39104	0.612097	1.10551	0.960519	0.35927	-0.178189	-0.0308817	1.36325	-0.203858	0	0	-0.0341998	0.142083	-0.228435	0.0777204	0.0327566	0	0	-0.0397349	-0.143176	-0.147337	-0.28744	-0.0746486	-0.224432	0.271949	0.897773	0	0	-0.347978	-0.299422	0.206951	0.655692	0.648925	0	0
1.38	-2.47261	1.47585	-2.3194	0.61073	1.11328	0.96148	0.373443	-0.168352	-0.0285868	1.35771	-0.19965	0	0	-0.0554856	0.138839	-0.219375	0.0604827	0.031569	0	0	-0.0433274	-0.135192	-0.154487	-0.287466	-0.0748665	-0.229711	0.277174	0.90527	0	0	-0.346412	-0.297984	0.206369	0.658549	0.645756	0	0
1.39	-2.53726	1.4789	-2.24906	0.609309	1.12092	0.962231	0.387241	-0.159016	-0.0270608	1.34833	-0.195235	0	0	-0.0751616	0.135115	-0.209242	0.0439746	0.0303931	0	0	-0.046319	-0.127149	-0.162514	-0.287233	-0.074586	-0.237347	0.283583	0.915019	0	0	-0.344906	-0.29723	0.207116	0.660703	0.646423	0	0
1.4	-2.60195	1.48139	-2.17799	0.607903	1.12842	0.962869	0.399722	-0.150562	-0.0264474	1.33523	-0.189892	0	0	-0.0933514	0.130894	-0.199398	0.0303392	0.030564	0	0	-0.0494407	-0.119699	-0.171482	-0.285706	-0.0737886	-0.244792	0.288969	0.92506	0	0	-0.343733	-0.296848	0.207466	0.662144	0.651507	0	0
1.41	-2.6654	1.48308	-2.1078	0.606498	1.13584	0.963393	0.410805	-0.143543	-0.0266496	1.3189	-0.182816	0	0	-0.110567	0.126725	-0.189517	0.0184834	0.0311534	0	0	-0.0527308	-0.113056	-0.180982	-0.282868	-0.0727731	-0.24953	0.29222	0.934454	0	0	-0.342536	-0.296081	0.204634	0.66538	0.654106	0	0
1.42	-2.72773	1.48393	-2.03903	0.605126	1.14319	0.9638	0.42033	-0.137287	-0.0266626	1.29944	-0.173779	0	0	-0.12743	0.122839	-0.179496	0.00737974	0.0316239	0	0	-0.0565227	-0.106911	-0.189989	-0.279325	-0.0714973	-0.254847	0.295781	0.943075	0	0	-0.340424	-0.295119	0.200775	0.66858	0.655854	0	0
